<svg width="302" height="141" viewBox="0 0 302 141" fill="none" xmlns="http://www.w3.org/2000/svg">
<g filter="url(#filter0_d_149_2720)">
<path d="M144.237 78.5407C142.045 80.7324 138.492 80.7324 136.3 78.5407L117.409 59.6497C115.606 57.8462 115.606 54.922 117.409 53.1185C119.213 51.3149 122.137 51.3149 123.94 53.1185L136.3 65.4782C138.492 67.6699 142.045 67.6699 144.237 65.4782L179.055 30.6602C180.859 28.8566 183.783 28.8566 185.586 30.6602C187.39 32.4637 187.39 35.3879 185.586 37.1914L144.237 78.5407Z" fill="#FF8A07"/>
</g>
<path d="M7.384 135V128.352L8.08 130.272L0.784 118.2H4.12L9.976 127.92H8.104L14.008 118.2H17.08L9.784 130.272L10.504 128.352V135H7.384ZM23.1655 135.168C21.8535 135.168 20.6855 134.888 19.6615 134.328C18.6375 133.752 17.8295 132.968 17.2375 131.976C16.6455 130.984 16.3495 129.856 16.3495 128.592C16.3495 127.312 16.6455 126.184 17.2375 125.208C17.8295 124.216 18.6375 123.44 19.6615 122.88C20.6855 122.32 21.8535 122.04 23.1655 122.04C24.4935 122.04 25.6695 122.32 26.6935 122.88C27.7335 123.44 28.5415 124.208 29.1175 125.184C29.7095 126.16 30.0055 127.296 30.0055 128.592C30.0055 129.856 29.7095 130.984 29.1175 131.976C28.5415 132.968 27.7335 133.752 26.6935 134.328C25.6695 134.888 24.4935 135.168 23.1655 135.168ZM23.1655 132.6C23.9015 132.6 24.5575 132.44 25.1335 132.12C25.7095 131.8 26.1575 131.336 26.4775 130.728C26.8135 130.12 26.9815 129.408 26.9815 128.592C26.9815 127.76 26.8135 127.048 26.4775 126.456C26.1575 125.848 25.7095 125.384 25.1335 125.064C24.5575 124.744 23.9095 124.584 23.1895 124.584C22.4535 124.584 21.7975 124.744 21.2215 125.064C20.6615 125.384 20.2135 125.848 19.8775 126.456C19.5415 127.048 19.3735 127.76 19.3735 128.592C19.3735 129.408 19.5415 130.12 19.8775 130.728C20.2135 131.336 20.6615 131.8 21.2215 132.12C21.7975 132.44 22.4455 132.6 23.1655 132.6ZM38.2983 135.168C37.2103 135.168 36.2503 134.968 35.4183 134.568C34.5863 134.152 33.9383 133.528 33.4743 132.696C33.0103 131.848 32.7783 130.784 32.7783 129.504V122.184H35.7783V129.096C35.7783 130.248 36.0343 131.112 36.5463 131.688C37.0743 132.248 37.8183 132.528 38.7783 132.528C39.4823 132.528 40.0903 132.384 40.6023 132.096C41.1303 131.808 41.5383 131.376 41.8263 130.8C42.1303 130.224 42.2823 129.512 42.2823 128.664V122.184H45.2823V135H42.4263V131.544L42.9303 132.6C42.4983 133.432 41.8663 134.072 41.0343 134.52C40.2023 134.952 39.2903 135.168 38.2983 135.168ZM49.2102 135V122.184H52.0662V125.712L51.7302 124.68C52.1142 123.816 52.7142 123.16 53.5302 122.712C54.3622 122.264 55.3942 122.04 56.6262 122.04V124.896C56.4982 124.864 56.3782 124.848 56.2662 124.848C56.1542 124.832 56.0422 124.824 55.9302 124.824C54.7942 124.824 53.8902 125.16 53.2182 125.832C52.5462 126.488 52.2102 127.472 52.2102 128.784V135H49.2102ZM73.0251 135.168C71.9371 135.168 70.9691 134.928 70.1211 134.448C69.2731 133.968 68.6011 133.248 68.1051 132.288C67.6251 131.312 67.3851 130.08 67.3851 128.592C67.3851 127.088 67.6331 125.856 68.1291 124.896C68.6411 123.936 69.3211 123.224 70.1691 122.76C71.0331 122.28 71.9851 122.04 73.0251 122.04C74.2891 122.04 75.4011 122.312 76.3611 122.856C77.3371 123.4 78.1051 124.16 78.6651 125.136C79.2411 126.112 79.5291 127.264 79.5291 128.592C79.5291 129.92 79.2411 131.072 78.6651 132.048C78.1051 133.024 77.3371 133.792 76.3611 134.352C75.4011 134.896 74.2891 135.168 73.0251 135.168ZM65.9211 135V117.192H68.9211V125.16L68.6811 128.568L68.7771 131.976V135H65.9211ZM72.6891 132.6C73.4091 132.6 74.0491 132.44 74.6091 132.12C75.1851 131.8 75.6411 131.336 75.9771 130.728C76.3131 130.12 76.4811 129.408 76.4811 128.592C76.4811 127.76 76.3131 127.048 75.9771 126.456C75.6411 125.848 75.1851 125.384 74.6091 125.064C74.0491 124.744 73.4091 124.584 72.6891 124.584C71.9691 124.584 71.3211 124.744 70.7451 125.064C70.1691 125.384 69.7131 125.848 69.3771 126.456C69.0411 127.048 68.8731 127.76 68.8731 128.592C68.8731 129.408 69.0411 130.12 69.3771 130.728C69.7131 131.336 70.1691 131.8 70.7451 132.12C71.3211 132.44 71.9691 132.6 72.6891 132.6ZM88.1343 135.168C86.8223 135.168 85.6543 134.888 84.6303 134.328C83.6063 133.752 82.7983 132.968 82.2063 131.976C81.6143 130.984 81.3183 129.856 81.3183 128.592C81.3183 127.312 81.6143 126.184 82.2063 125.208C82.7983 124.216 83.6063 123.44 84.6303 122.88C85.6543 122.32 86.8223 122.04 88.1343 122.04C89.4623 122.04 90.6383 122.32 91.6623 122.88C92.7023 123.44 93.5103 124.208 94.0863 125.184C94.6783 126.16 94.9743 127.296 94.9743 128.592C94.9743 129.856 94.6783 130.984 94.0863 131.976C93.5103 132.968 92.7023 133.752 91.6623 134.328C90.6383 134.888 89.4623 135.168 88.1343 135.168ZM88.1343 132.6C88.8703 132.6 89.5263 132.44 90.1023 132.12C90.6783 131.8 91.1263 131.336 91.4463 130.728C91.7823 130.12 91.9503 129.408 91.9503 128.592C91.9503 127.76 91.7823 127.048 91.4463 126.456C91.1263 125.848 90.6783 125.384 90.1023 125.064C89.5263 124.744 88.8783 124.584 88.1583 124.584C87.4223 124.584 86.7663 124.744 86.1903 125.064C85.6303 125.384 85.1823 125.848 84.8463 126.456C84.5103 127.048 84.3423 127.76 84.3423 128.592C84.3423 129.408 84.5103 130.12 84.8463 130.728C85.1823 131.336 85.6303 131.8 86.1903 132.12C86.7663 132.44 87.4143 132.6 88.1343 132.6ZM103.603 135.168C102.291 135.168 101.123 134.888 100.099 134.328C99.075 133.752 98.267 132.968 97.675 131.976C97.083 130.984 96.787 129.856 96.787 128.592C96.787 127.312 97.083 126.184 97.675 125.208C98.267 124.216 99.075 123.44 100.099 122.88C101.123 122.32 102.291 122.04 103.603 122.04C104.931 122.04 106.107 122.32 107.131 122.88C108.171 123.44 108.979 124.208 109.555 125.184C110.147 126.16 110.443 127.296 110.443 128.592C110.443 129.856 110.147 130.984 109.555 131.976C108.979 132.968 108.171 133.752 107.131 134.328C106.107 134.888 104.931 135.168 103.603 135.168ZM103.603 132.6C104.339 132.6 104.995 132.44 105.571 132.12C106.147 131.8 106.595 131.336 106.915 130.728C107.251 130.12 107.419 129.408 107.419 128.592C107.419 127.76 107.251 127.048 106.915 126.456C106.595 125.848 106.147 125.384 105.571 125.064C104.995 124.744 104.347 124.584 103.627 124.584C102.891 124.584 102.235 124.744 101.659 125.064C101.099 125.384 100.651 125.848 100.315 126.456C99.979 127.048 99.811 127.76 99.811 128.592C99.811 129.408 99.979 130.12 100.315 130.728C100.651 131.336 101.099 131.8 101.659 132.12C102.235 132.44 102.883 132.6 103.603 132.6ZM115.76 132.144L115.832 128.376L122.528 122.184H126.128L120.44 127.896L118.856 129.216L115.76 132.144ZM113.312 135V117.192H116.312V135H113.312ZM122.984 135L118.304 129.216L120.2 126.816L126.632 135H122.984ZM128.57 135V122.184H131.57V135H128.57ZM130.082 120.072C129.522 120.072 129.058 119.896 128.69 119.544C128.338 119.192 128.162 118.768 128.162 118.272C128.162 117.76 128.338 117.336 128.69 117C129.058 116.648 129.522 116.472 130.082 116.472C130.642 116.472 131.098 116.64 131.45 116.976C131.818 117.296 132.002 117.704 132.002 118.2C132.002 118.728 131.826 119.176 131.474 119.544C131.122 119.896 130.658 120.072 130.082 120.072ZM142.779 122.04C143.803 122.04 144.715 122.24 145.515 122.64C146.331 123.04 146.971 123.656 147.435 124.488C147.899 125.304 148.131 126.36 148.131 127.656V135H145.131V128.04C145.131 126.904 144.859 126.056 144.315 125.496C143.787 124.936 143.043 124.656 142.083 124.656C141.379 124.656 140.755 124.8 140.211 125.088C139.667 125.376 139.243 125.808 138.939 126.384C138.651 126.944 138.507 127.656 138.507 128.52V135H135.507V122.184H138.363V125.64L137.859 124.584C138.307 123.768 138.955 123.144 139.803 122.712C140.667 122.264 141.659 122.04 142.779 122.04ZM157.768 139.824C156.584 139.824 155.424 139.664 154.288 139.344C153.168 139.04 152.248 138.592 151.528 138L152.872 135.744C153.432 136.208 154.136 136.576 154.984 136.848C155.848 137.136 156.72 137.28 157.6 137.28C159.008 137.28 160.04 136.952 160.696 136.296C161.352 135.656 161.68 134.688 161.68 133.392V131.112L161.92 128.208L161.824 125.304V122.184H164.68V133.056C164.68 135.376 164.088 137.08 162.904 138.168C161.72 139.272 160.008 139.824 157.768 139.824ZM157.384 134.424C156.168 134.424 155.064 134.168 154.072 133.656C153.096 133.128 152.32 132.4 151.744 131.472C151.184 130.544 150.904 129.456 150.904 128.208C150.904 126.976 151.184 125.896 151.744 124.968C152.32 124.04 153.096 123.32 154.072 122.808C155.064 122.296 156.168 122.04 157.384 122.04C158.472 122.04 159.448 122.256 160.312 122.688C161.176 123.12 161.864 123.792 162.376 124.704C162.904 125.616 163.168 126.784 163.168 128.208C163.168 129.632 162.904 130.808 162.376 131.736C161.864 132.648 161.176 133.328 160.312 133.776C159.448 134.208 158.472 134.424 157.384 134.424ZM157.84 131.88C158.592 131.88 159.264 131.728 159.856 131.424C160.448 131.104 160.904 130.672 161.224 130.128C161.56 129.568 161.728 128.928 161.728 128.208C161.728 127.488 161.56 126.856 161.224 126.312C160.904 125.752 160.448 125.328 159.856 125.04C159.264 124.736 158.592 124.584 157.84 124.584C157.088 124.584 156.408 124.736 155.8 125.04C155.208 125.328 154.744 125.752 154.408 126.312C154.088 126.856 153.928 127.488 153.928 128.208C153.928 128.928 154.088 129.568 154.408 130.128C154.744 130.672 155.208 131.104 155.8 131.424C156.408 131.728 157.088 131.88 157.84 131.88ZM181.137 135.168C179.793 135.168 178.593 134.888 177.537 134.328C176.497 133.752 175.681 132.968 175.089 131.976C174.497 130.984 174.201 129.856 174.201 128.592C174.201 127.312 174.497 126.184 175.089 125.208C175.681 124.216 176.497 123.44 177.537 122.88C178.593 122.32 179.793 122.04 181.137 122.04C182.385 122.04 183.481 122.296 184.425 122.808C185.385 123.304 186.113 124.04 186.609 125.016L184.305 126.36C183.921 125.752 183.449 125.304 182.889 125.016C182.345 124.728 181.753 124.584 181.113 124.584C180.377 124.584 179.713 124.744 179.121 125.064C178.529 125.384 178.065 125.848 177.729 126.456C177.393 127.048 177.225 127.76 177.225 128.592C177.225 129.424 177.393 130.144 177.729 130.752C178.065 131.344 178.529 131.8 179.121 132.12C179.713 132.44 180.377 132.6 181.113 132.6C181.753 132.6 182.345 132.456 182.889 132.168C183.449 131.88 183.921 131.432 184.305 130.824L186.609 132.168C186.113 133.128 185.385 133.872 184.425 134.4C183.481 134.912 182.385 135.168 181.137 135.168ZM194.775 135.168C193.463 135.168 192.295 134.888 191.271 134.328C190.247 133.752 189.439 132.968 188.847 131.976C188.255 130.984 187.959 129.856 187.959 128.592C187.959 127.312 188.255 126.184 188.847 125.208C189.439 124.216 190.247 123.44 191.271 122.88C192.295 122.32 193.463 122.04 194.775 122.04C196.103 122.04 197.279 122.32 198.303 122.88C199.343 123.44 200.151 124.208 200.727 125.184C201.319 126.16 201.615 127.296 201.615 128.592C201.615 129.856 201.319 130.984 200.727 131.976C200.151 132.968 199.343 133.752 198.303 134.328C197.279 134.888 196.103 135.168 194.775 135.168ZM194.775 132.6C195.511 132.6 196.167 132.44 196.743 132.12C197.319 131.8 197.767 131.336 198.087 130.728C198.423 130.12 198.591 129.408 198.591 128.592C198.591 127.76 198.423 127.048 198.087 126.456C197.767 125.848 197.319 125.384 196.743 125.064C196.167 124.744 195.519 124.584 194.799 124.584C194.063 124.584 193.407 124.744 192.831 125.064C192.271 125.384 191.823 125.848 191.487 126.456C191.151 127.048 190.983 127.76 190.983 128.592C190.983 129.408 191.151 130.12 191.487 130.728C191.823 131.336 192.271 131.8 192.831 132.12C193.407 132.44 194.055 132.6 194.775 132.6ZM211.756 122.04C212.78 122.04 213.692 122.24 214.492 122.64C215.308 123.04 215.948 123.656 216.412 124.488C216.876 125.304 217.108 126.36 217.108 127.656V135H214.108V128.04C214.108 126.904 213.836 126.056 213.292 125.496C212.764 124.936 212.02 124.656 211.06 124.656C210.356 124.656 209.732 124.8 209.188 125.088C208.644 125.376 208.22 125.808 207.916 126.384C207.628 126.944 207.484 127.656 207.484 128.52V135H204.484V122.184H207.34V125.64L206.836 124.584C207.284 123.768 207.932 123.144 208.78 122.712C209.644 122.264 210.636 122.04 211.756 122.04ZM221.321 135V121.464C221.321 120.12 221.713 119.048 222.497 118.248C223.297 117.432 224.433 117.024 225.905 117.024C226.433 117.024 226.929 117.08 227.393 117.192C227.873 117.304 228.273 117.48 228.593 117.72L227.777 119.976C227.553 119.8 227.297 119.672 227.009 119.592C226.721 119.496 226.425 119.448 226.121 119.448C225.497 119.448 225.025 119.624 224.705 119.976C224.385 120.312 224.225 120.824 224.225 121.512V122.952L224.321 124.296V135H221.321ZM219.209 124.68V122.28H227.753V124.68H219.209ZM229.865 135V122.184H232.865V135H229.865ZM231.377 120.072C230.817 120.072 230.353 119.896 229.985 119.544C229.633 119.192 229.457 118.768 229.457 118.272C229.457 117.76 229.633 117.336 229.985 117C230.353 116.648 230.817 116.472 231.377 116.472C231.937 116.472 232.393 116.64 232.745 116.976C233.113 117.296 233.297 117.704 233.297 118.2C233.297 118.728 233.121 119.176 232.769 119.544C232.417 119.896 231.953 120.072 231.377 120.072ZM236.804 135V122.184H239.66V125.712L239.324 124.68C239.708 123.816 240.308 123.16 241.124 122.712C241.956 122.264 242.988 122.04 244.22 122.04V124.896C244.092 124.864 243.972 124.848 243.86 124.848C243.748 124.832 243.636 124.824 243.524 124.824C242.388 124.824 241.484 125.16 240.812 125.832C240.14 126.488 239.804 127.472 239.804 128.784V135H236.804ZM262.941 122.04C263.965 122.04 264.869 122.24 265.653 122.64C266.453 123.04 267.077 123.656 267.525 124.488C267.973 125.304 268.197 126.36 268.197 127.656V135H265.197V128.04C265.197 126.904 264.949 126.056 264.453 125.496C263.957 124.936 263.245 124.656 262.317 124.656C261.661 124.656 261.077 124.8 260.565 125.088C260.069 125.376 259.677 125.8 259.389 126.36C259.117 126.92 258.981 127.632 258.981 128.496V135H255.981V128.04C255.981 126.904 255.733 126.056 255.237 125.496C254.741 124.936 254.029 124.656 253.101 124.656C252.445 124.656 251.861 124.8 251.349 125.088C250.853 125.376 250.461 125.8 250.173 126.36C249.901 126.92 249.765 127.632 249.765 128.496V135H246.765V122.184H249.621V125.592L249.117 124.584C249.549 123.752 250.173 123.12 250.989 122.688C251.821 122.256 252.765 122.04 253.821 122.04C255.021 122.04 256.061 122.336 256.941 122.928C257.837 123.52 258.429 124.416 258.717 125.616L257.541 125.208C257.957 124.248 258.645 123.48 259.605 122.904C260.565 122.328 261.677 122.04 262.941 122.04ZM278.078 135.168C276.654 135.168 275.406 134.888 274.334 134.328C273.278 133.752 272.454 132.968 271.862 131.976C271.286 130.984 270.998 129.856 270.998 128.592C270.998 127.312 271.278 126.184 271.838 125.208C272.414 124.216 273.198 123.44 274.19 122.88C275.198 122.32 276.342 122.04 277.622 122.04C278.87 122.04 279.982 122.312 280.958 122.856C281.934 123.4 282.702 124.168 283.262 125.16C283.822 126.152 284.102 127.32 284.102 128.664C284.102 128.792 284.094 128.936 284.078 129.096C284.078 129.256 284.07 129.408 284.054 129.552H273.374V127.56H282.47L281.294 128.184C281.31 127.448 281.158 126.8 280.838 126.24C280.518 125.68 280.078 125.24 279.518 124.92C278.974 124.6 278.342 124.44 277.622 124.44C276.886 124.44 276.238 124.6 275.678 124.92C275.134 125.24 274.702 125.688 274.382 126.264C274.078 126.824 273.926 127.488 273.926 128.256V128.736C273.926 129.504 274.102 130.184 274.454 130.776C274.806 131.368 275.302 131.824 275.942 132.144C276.582 132.464 277.318 132.624 278.15 132.624C278.87 132.624 279.518 132.512 280.094 132.288C280.67 132.064 281.182 131.712 281.63 131.232L283.238 133.08C282.662 133.752 281.934 134.272 281.054 134.64C280.19 134.992 279.198 135.168 278.078 135.168ZM292.408 135.168C291.176 135.168 290.064 134.896 289.072 134.352C288.096 133.792 287.328 133.024 286.768 132.048C286.208 131.072 285.928 129.92 285.928 128.592C285.928 127.264 286.208 126.112 286.768 125.136C287.328 124.16 288.096 123.4 289.072 122.856C290.064 122.312 291.176 122.04 292.408 122.04C293.48 122.04 294.44 122.28 295.288 122.76C296.136 123.224 296.808 123.936 297.304 124.896C297.8 125.856 298.048 127.088 298.048 128.592C298.048 130.08 297.808 131.312 297.328 132.288C296.848 133.248 296.184 133.968 295.336 134.448C294.488 134.928 293.512 135.168 292.408 135.168ZM292.768 132.6C293.488 132.6 294.128 132.44 294.688 132.12C295.264 131.8 295.72 131.336 296.056 130.728C296.408 130.12 296.584 129.408 296.584 128.592C296.584 127.76 296.408 127.048 296.056 126.456C295.72 125.848 295.264 125.384 294.688 125.064C294.128 124.744 293.488 124.584 292.768 124.584C292.048 124.584 291.4 124.744 290.824 125.064C290.264 125.384 289.808 125.848 289.456 126.456C289.12 127.048 288.952 127.76 288.952 128.592C288.952 129.408 289.12 130.12 289.456 130.728C289.808 131.336 290.264 131.8 290.824 132.12C291.4 132.44 292.048 132.6 292.768 132.6ZM296.656 135V131.976L296.776 128.568L296.536 125.16V117.192H299.512V135H296.656Z" fill="#202121"/>
<defs>
<filter id="filter0_d_149_2720" x="108.536" y="27.3995" width="85.9227" height="65.9178" filterUnits="userSpaceOnUse" color-interpolation-filters="sRGB">
<feFlood flood-opacity="0" result="BackgroundImageFix"/>
<feColorMatrix in="SourceAlpha" type="matrix" values="0 0 0 0 0 0 0 0 0 0 0 0 0 0 0 0 0 0 127 0" result="hardAlpha"/>
<feOffset dy="5.61225"/>
<feGaussianBlur stdDeviation="3.7602"/>
<feComposite in2="hardAlpha" operator="out"/>
<feColorMatrix type="matrix" values="0 0 0 0 1 0 0 0 0 0.541176 0 0 0 0 0.027451 0 0 0 0.12 0"/>
<feBlend mode="normal" in2="BackgroundImageFix" result="effect1_dropShadow_149_2720"/>
<feBlend mode="normal" in="SourceGraphic" in2="effect1_dropShadow_149_2720" result="shape"/>
</filter>
</defs>
</svg>
